<svg xmlns="http://www.w3.org/2000/svg" xmlns:xlink="http://www.w3.org/1999/xlink" version="1.1" width="1000" height="1000" viewBox="0 0 1000 1000" xml:space="preserve">
<desc>Created with Fabric.js 3.5.0</desc>
<defs>
</defs>
<rect x="0" y="0" width="100%" height="100%" fill="#ffffff"/>
<g transform="matrix(45.4583 0 0 45.4583 499.9999 499.9998)" id="910084" clip-path="url(#CLIPPATH_1)">
<clipPath id="CLIPPATH_1">
	<rect transform="matrix(1 0 0 1 0.0002 -0.0367)" id="clip0" x="-10" y="-10" rx="0" ry="0" width="20" height="20"/>
</clipPath>
<path style="stroke: none; stroke-width: 1; stroke-dasharray: none; stroke-linecap: butt; stroke-dashoffset: 0; stroke-linejoin: miter; stroke-miterlimit: 4; is-custom-font: none; font-file-url: none; fill: rgb(247,147,30); fill-rule: nonzero; opacity: 1;" vector-effect="non-scaling-stroke" transform=" translate(-9.9998, -10.5538)" d="M 13.6667 3.91049 C 12.6667 3.06299 11.6367 2.18382 10.5942 1.14466 L 10 0.554657 L 9.41667 1.14549 C 7.54 3.02716 6.65333 5.91632 6.26833 7.64966 C 5.97364 7.19291 5.75497 6.6914 5.62083 6.16466 L 5.26833 4.80382 L 4.24333 5.76716 C 2.4475 7.45299 1.25 9.12549 1.25 11.8038 C 1.23323 13.7357 1.86243 15.6178 3.03768 17.1512 C 4.21292 18.6845 5.86681 19.7813 7.73667 20.2672 C 8.30006 20.4042 8.87509 20.4879 9.45417 20.5172 C 9.63522 20.5401 9.8175 20.552 10 20.553 C 10.0958 20.553 10.1892 20.5447 10.2825 20.5388 C 12.5526 20.4705 14.7068 19.5203 16.2877 17.8897 C 17.8686 16.2591 18.7519 14.0766 18.75 11.8055 C 18.75 8.22716 16.3942 6.22716 13.6667 3.91049 Z M 10.1667 18.8722 C 10.0833 18.8722 10 18.8805 9.91166 18.8797 C 9.1616 18.8567 8.44982 18.5431 7.92671 18.0051 C 7.40361 17.4671 7.11014 16.7467 7.10833 15.9963 C 7.10833 14.9397 7.675 14.413 8.9575 13.3213 C 9.28083 13.0463 9.6325 12.7472 10.0025 12.4047 C 10.3267 12.6988 10.6417 12.9655 10.9325 13.213 C 12.2208 14.3063 12.8933 14.9272 12.8933 15.9938 C 12.8919 16.7309 12.6088 17.4396 12.1019 17.9747 C 11.5949 18.5098 10.9026 18.8309 10.1667 18.8722 Z M 14.35 17.3963 L 14.3333 17.408 C 14.4829 16.9523 14.5594 16.4759 14.56 15.9963 C 14.56 14.1088 13.3217 13.0572 12.0117 11.9447 C 11.5475 11.5513 11.0683 11.1447 10.59 10.6663 L 10 10.0772 L 9.41083 10.6663 C 8.87083 11.2055 8.3425 11.6555 7.87666 12.0522 C 6.57 13.1638 5.44083 14.1247 5.44083 15.9963 C 5.44261 16.4965 5.52708 16.9929 5.69083 17.4655 C 4.82338 16.7994 4.12164 15.9418 3.64041 14.9597 C 3.15918 13.9776 2.91148 12.8975 2.91667 11.8038 C 2.90296 10.3415 3.46895 8.93326 4.49083 7.88716 C 4.66685 8.24426 4.87552 8.58432 5.11417 8.90299 C 5.28847 9.13819 5.52778 9.31725 5.80261 9.41809 C 6.07744 9.51893 6.37577 9.53714 6.66083 9.47049 C 6.95082 9.40593 7.21608 9.25921 7.42489 9.04789 C 7.63371 8.83656 7.77724 8.56956 7.83833 8.27882 C 8.18726 6.36353 8.94193 4.54505 10.0517 2.94549 C 10.9308 3.77882 11.8017 4.51632 12.5875 5.18382 C 15.1975 7.40049 17.0875 9.00216 17.0875 11.8088 C 17.0895 12.8877 16.8437 13.9526 16.3689 14.9214 C 15.8941 15.8902 15.2031 16.7369 14.3492 17.3963 H 14.35 Z" stroke-linecap="round"/>
</g>
</svg>